<svg xmlns="http://www.w3.org/2000/svg" width="120" height="120"><path fill-rule="evenodd" fill="#0095DA" d="M60.002 120.003C26.864 120.003 0 93.139 0 60.001 0 26.864 26.864 0 60.002 0c33.137 0 60.001 26.864 60.001 60.001 0 33.138-26.864 60.002-60.001 60.002zM60.001 3.498c-31.206 0-56.503 25.297-56.503 56.503s25.297 56.504 56.503 56.504 56.504-25.298 56.504-56.504S91.207 3.498 60.001 3.498zm31.606 38.494h-1.615V74.65c0 .742-.635 1.343-1.418 1.343h-8.562v1.998h8.563c.789 0 1.428.672 1.428 1.502s-.639 1.502-1.428 1.502H66.002v10.628c0 .763-.639 1.381-1.427 1.381h-9.149c-.788 0-1.427-.618-1.427-1.381V80.995H31.416c-.789 0-1.429-.672-1.429-1.502s.64-1.502 1.429-1.502h10.597v-1.998h-10.58c-.783 0-1.418-.601-1.418-1.343V41.992H28.4c-.765 0-1.386-.771-1.386-1.725V31.74c0-.953.621-1.725 1.386-1.725h4.605v-1.678c0-.735.632-1.33 1.411-1.33h11.165c.78 0 1.411.595 1.411 1.33v1.676h6.013v-1.676c0-.735.632-1.33 1.411-1.33h11.165c.78 0 1.411.595 1.411 1.33v1.676h6.013v-1.676c0-.735.632-1.33 1.411-1.33h11.165c.78 0 1.411.595 1.411 1.33v1.678h4.615c.765 0 1.386.772 1.386 1.725v8.527c0 .954-.621 1.725-1.386 1.725zM66.002 77.991h10.986v-1.998H66.002v1.998zm-8.994 12h5.984v-8.996h-5.984v8.996zm0-12h5.984v-1.988h-5.984v1.988zm-12.006 0h8.997v-1.998h-8.997v1.998zm-11.994-4.997H87V41.992H33.008v31.002zm11.006-41.421c-.001-.021-.011-.038-.011-.058 0-.021.01-.038.011-.058v-1.446h-8v2.981h8v-1.419zm19.999-.052l-.001-.006.001-.007v-1.497h-7.999v2.981h7.999v-1.471zm20.001-1.51h-8v2.981h8v-2.981zm5.988 2.984l-3.01.004v1.667c0 .735-.631 1.329-1.411 1.329H74.416c-.779 0-1.411-.594-1.411-1.329v-1.649h-6.013v1.649c0 .735-.631 1.329-1.411 1.329H54.416c-.779 0-1.411-.594-1.411-1.329v-1.649h-6.013v1.649c0 .735-.631 1.329-1.411 1.329H34.416c-.779 0-1.411-.594-1.411-1.329v-1.668l-3-.003v6.018h1.31c.041-.003.076-.022.118-.022h57.141c.042 0 .077.019.118.022h1.31v-6.018zM71.591 69.996H47.425c-.78 0-1.412-.608-1.412-1.359V46.373c0-.752.632-1.36 1.412-1.36h24.166c.78 0 1.412.608 1.412 1.36v22.264c0 .751-.632 1.359-1.412 1.359zm-1.6-21.983H48.994v18.984h20.997V48.013zM50.476 60.456c.029-.082.06-.163.093-.242.033-.08.065-.156.094-.23l1.676-4.448c.158-.416.308-.785.452-1.105.143-.32.301-.59.473-.811.173-.22.371-.386.595-.499.225-.112.497-.168.817-.168.299 0 .554.044.766.132.212.088.403.232.573.434.171.202.333.468.486.799.154.33.324.736.511 1.218l1.708 4.448.093.23c.033.079.064.16.094.242.029.081.053.16.071.235a.913.913 0 0 1-.056.606.88.88 0 0 1-.227.294 1.03 1.03 0 0 1-.334.183c-.126.043-.26.064-.401.064-.163 0-.302-.022-.418-.067a.82.82 0 0 1-.311-.214 1.554 1.554 0 0 1-.253-.382 6.916 6.916 0 0 1-.246-.579l-.299-.777h-3.527l-.255.777a4.608 4.608 0 0 1-.228.588 1.458 1.458 0 0 1-.255.382.831.831 0 0 1-.321.208 1.265 1.265 0 0 1-.424.064c-.141 0-.275-.021-.402-.064a1.015 1.015 0 0 1-.333-.183.87.87 0 0 1-.312-.695.85.85 0 0 1 .028-.205 2.58 2.58 0 0 1 .072-.235zm5.577-1.897l-1.365-3.935h-.031l-1.371 3.935h2.767zm4.605-5.232a1.12 1.12 0 0 1 .489-.282c.201-.061.449-.092.745-.092h1.545c1.699 0 2.98.368 3.844 1.105.864.736 1.297 1.869 1.297 3.399 0 .747-.119 1.395-.356 1.946a3.583 3.583 0 0 1-1.006 1.368 4.248 4.248 0 0 1-1.567.804 7.325 7.325 0 0 1-2.031.263h-2.169c-.224 0-.41-.044-.558-.134a1.022 1.022 0 0 1-.352-.355 1.499 1.499 0 0 1-.181-.499 3.255 3.255 0 0 1-.049-.572v-5.752c0-.274.027-.51.081-.71.054-.2.143-.363.268-.489zm1.931 7.141h.854c.474 0 .881-.053 1.221-.159.341-.106.622-.288.845-.545.222-.257.386-.576.492-.958.106-.381.159-.849.159-1.404 0-1.032-.218-1.801-.654-2.307-.437-.506-1.105-.759-2.007-.759h-.91v6.132z"/></svg>