<svg xmlns="http://www.w3.org/2000/svg" width="120" height="120"><path fill-rule="evenodd" fill="#0095DA" d="M60.002 120.001c-33.137 0-60-26.863-60-60 0-33.136 26.863-59.999 60-59.999 33.136 0 59.999 26.863 59.999 59.999 0 33.137-26.863 60-59.999 60zM60.001 3C28.52 3 3 28.52 3 60.001c0 31.482 25.52 57.002 57.001 57.002 31.481 0 57.002-25.52 57.002-57.002C117.003 28.52 91.482 3 60.001 3zm21.227 88.403c.062.398-.053.803-.318 1.11a1.394 1.394 0 0 1-1.055.481H53.524a1.386 1.386 0 0 1-1.26-.8l-4.076-8.759-9.096 2.257a2.79 2.79 0 0 1-2.171-.352 2.764 2.764 0 0 1-1.232-1.811l-3.001-15.811-4.078-4.303a2.733 2.733 0 0 1 .033-3.808l7.208-7.341c-.318-2.452-.85-10.495 4.518-16.94 4.603-5.526 12.24-8.327 22.7-8.327 11.81 0 20.209 4.538 23.65 12.778 4.093 9.802.47 23.909-8.423 33.105l2.932 18.521zm2.924-50.571c-3.025-7.248-10.316-11.079-21.083-11.079-9.577 0-16.489 2.459-20.542 7.306-5.45 6.521-3.853 15.332-3.836 15.421.083.44-.054.896-.37 1.217l-7.688 7.831 4.356 4.597c.182.191.304.43.353.689l3.077 16.207 10.211-2.534a1.39 1.39 0 0 1 1.597.758l4.185 8.995h23.82l-2.788-17.613a1.376 1.376 0 0 1 .391-1.188c8.506-8.436 12.082-21.594 8.317-30.607zM62.997 69c-8.829 0-16.012-7.179-16.012-16.004 0-8.825 7.183-16.003 16.012-16.003 8.827 0 16.009 7.178 16.009 16.003S71.824 69 62.997 69zm0-29.002c-7.172 0-13.006 5.83-13.006 12.998 0 7.169 5.834 12.999 13.006 12.999 7.17 0 13.003-5.83 13.003-12.999 0-7.168-5.833-12.998-13.003-12.998zm3.524 19.204c-.421.335-.96.605-1.509.799-.339.123-1.151.216-1.151.281v.558c0 .368-.133.687-.4.899a1.167 1.167 0 0 1-.737.268c-.27 0-.682-.093-.894-.268-.176-.147-.703-.421-.703-.899v-.51c0-.01.143-.022.056-.035-.293-.047-.259-.099-.528-.159a11.708 11.708 0 0 1-1.402-.401 1.38 1.38 0 0 1-.714-.532 1.322 1.322 0 0 1-.233-.741c0-.313.104-.604.302-.84.312-.375.863-.502 1.333-.344l.639.2c.186.058.39.111.606.158a6.1 6.1 0 0 0 .715.108c.505.05 1.239.088 1.869-.072.279-.071.523-.174.73-.308.189-.121.334-.266.448-.444a.958.958 0 0 0 .139-.528.993.993 0 0 0-.068-.387.998.998 0 0 0-.202-.311 1.759 1.759 0 0 0-.371-.293 4.72 4.72 0 0 0-.56-.282c-.363-.15-.748-.287-1.148-.409-.425-.13-.841-.265-1.246-.401a11.103 11.103 0 0 1-1.213-.483 4.531 4.531 0 0 1-1.121-.735 3.495 3.495 0 0 1-.819-1.11 3.698 3.698 0 0 1-.325-1.555c0-.589.088-1.132.341-1.612.242-.461.495-.864.906-1.196.393-.317.698-.572 1.216-.758.31-.112.65-.197.65-.257v-.453c0-.362.41-.678.664-.89.424-.354 1.325-.364 1.762-.009.258.208.308.527.308.899v.421c0 .027.658.065.947.114.533.086 1.127.22 1.579.396.275.085.519.263.683.515.15.223.228.476.228.744 0 .307-.106.597-.309.835-.321.374-.871.5-1.336.339l-.617-.133a15.332 15.332 0 0 0-.705-.131 9.742 9.742 0 0 0-.693-.089c-.515-.049-.948-.045-1.424.059-.261.058-.5.146-.71.26a1.27 1.27 0 0 0-.428.367.664.664 0 0 0-.119.408c0 .259.055.46.167.612.148.201.341.369.59.514.287.166.624.314 1.005.44l1.29.42c.452.144.899.304 1.338.477.486.195.921.438 1.295.724.401.306.731.686.98 1.13.261.464.382 1.029.382 1.675a3.6 3.6 0 0 1-.413 1.698 4.036 4.036 0 0 1-1.07 1.257z"/></svg>