<svg xmlns="http://www.w3.org/2000/svg" width="120" height="120"><path fill-rule="evenodd" fill="#0095DA" d="M60.002 120.003C26.864 120.003 0 93.139 0 60.001 0 26.863 26.864 0 60.002 0c33.137 0 60.001 26.863 60.001 60.001s-26.864 60.002-60.001 60.002zM60.001 3C28.52 3 3 28.52 3 60.001c0 31.481 25.52 57.002 57.001 57.002 31.481 0 57.002-25.521 57.002-57.002S91.482 3 60.001 3zM90.25 82.015H70.654l3.162 5.928c.355.663.134 1.504-.491 1.879a1.23 1.23 0 0 1-.639.179 1.29 1.29 0 0 1-1.133-.7l-3.886-7.286h-5.672v6.611c0 .759-.668 1.375-1.495 1.375-.826 0-1.494-.616-1.494-1.375v-6.611h-5.672l-3.887 7.286c-.238.448-.679.7-1.132.7-.218 0-.437-.057-.639-.179-.625-.375-.846-1.216-.492-1.879l3.163-5.928H29.754c-1.511 0-2.74-1.201-2.74-2.676V75.68c0-1.476 1.229-2.676 2.74-2.676h.231V38.783A2.785 2.785 0 0 1 32.765 36H54v-4a2 2 0 0 1 2-2h8a2 2 0 0 1 2 2v4h21.208a2.784 2.784 0 0 1 2.779 2.783v34.221h.263c1.511 0 2.741 1.2 2.741 2.676v3.659c0 1.475-1.23 2.676-2.741 2.676zM63 34a1 1 0 0 0-1-1h-4a1 1 0 0 0-1 1v2h6v-2zm23.989 5.002L73.271 39l-40.256.002v34.001h53.974V39.002zM90 75.994h-1.35c-.018.001-.034.011-.052.011H31.375c-.019 0-.034-.01-.053-.011h-1.321l.003 3.002H90v-3.002zM50.675 58.789a1.362 1.362 0 0 1 1.851-.104l7.388 6.086 11.875-11.879-2.719.239a1.385 1.385 0 0 1-1.484-1.249 1.375 1.375 0 0 1 1.246-1.491l5.893-.518c.35-.03.726.082 1.005.321.279.238.452.577.48.943l.47 6.141a1.375 1.375 0 0 1-1.368 1.481c-.709 0-1.31-.549-1.364-1.27l-.205-2.668L60.97 67.597a1.365 1.365 0 0 1-1.837.089l-7.372-6.073-6.212 6.415a1.364 1.364 0 0 1-1.938.028 1.379 1.379 0 0 1-.027-1.944l7.091-7.323z"/></svg>