<svg xmlns="http://www.w3.org/2000/svg" width="120" height="120"><path fill-rule="evenodd" fill="#0095DA" d="M60.002 120.003C26.864 120.003 0 93.139 0 60.001 0 26.864 26.864 0 60.002 0c33.137 0 60.001 26.864 60.001 60.001 0 33.138-26.864 60.002-60.001 60.002zM60.001 3C28.52 3 3 28.52 3 60.001c0 31.481 25.52 57.002 57.001 57.002 31.481 0 57.002-25.521 57.002-57.002S91.482 3 60.001 3zM90.25 83.015H70.654l3.162 5.928c.355.663.134 1.505-.491 1.879a1.23 1.23 0 0 1-.639.179 1.29 1.29 0 0 1-1.133-.7l-3.886-7.286h-5.672v6.611c0 .759-.668 1.375-1.495 1.375-.826 0-1.494-.616-1.494-1.375v-6.611h-5.672l-3.887 7.286c-.238.448-.679.7-1.132.7-.218 0-.437-.057-.639-.179-.625-.374-.846-1.216-.492-1.879l3.163-5.928H29.754c-1.511 0-2.74-1.201-2.74-2.676V76.68c0-1.476 1.229-2.676 2.74-2.676h.231V39.783A2.785 2.785 0 0 1 32.765 37h13.388c.969-6.78 6.798-12.015 13.84-12.015S72.863 30.22 73.832 37h13.376a2.784 2.784 0 0 1 2.779 2.783v34.221h.263c1.511 0 2.741 1.2 2.741 2.676v3.659c0 1.475-1.23 2.676-2.741 2.676zM59.993 27.989c-6.063 0-10.995 4.94-10.995 11.012 0 6.073 4.932 11.014 10.995 11.014 5.983 0 10.854-4.813 10.982-10.775a1.97 1.97 0 0 1-.216-.848c0-.223.064-.425.157-.612-.609-5.499-5.273-9.791-10.923-9.791zm26.996 12.013L73.938 40c-.523 7.247-6.569 12.987-13.945 12.987S46.57 47.247 46.046 40l-13.031.002v34.001h53.974V40.002zM90 76.994h-1.35c-.018.001-.034.011-.052.011H31.375c-.019 0-.034-.01-.053-.011h-1.321l.003 3.002H90v-3.002zM50.675 59.789a1.362 1.362 0 0 1 1.851-.104l7.388 6.086 11.875-11.879-2.719.239a1.385 1.385 0 0 1-1.484-1.249 1.375 1.375 0 0 1 1.246-1.491l5.893-.518c.35-.029.726.083 1.005.321.279.238.452.578.48.944l.47 6.141a1.374 1.374 0 0 1-1.368 1.48 1.37 1.37 0 0 1-1.364-1.27l-.205-2.668L60.97 68.598c-.499.5-1.293.535-1.837.088l-7.372-6.073-6.212 6.415a1.364 1.364 0 0 1-1.938.028 1.379 1.379 0 0 1-.027-1.944l7.091-7.323zm12.839-14.596c-.421.335-.959.605-1.507.799-.339.122-1.15.216-1.15.281v.558c0 .369-.133.688-.399.9a1.168 1.168 0 0 1-.737.267c-.269 0-.682-.092-.893-.267-.176-.147-.703-.421-.703-.9v-.51c0-.01.143-.022.057-.036-.293-.046-.259-.099-.528-.158-.272-.06-.527-.125-.766-.196a10.998 10.998 0 0 1-.635-.205 1.384 1.384 0 0 1-.714-.532 1.332 1.332 0 0 1-.232-.742c0-.313.104-.604.302-.84.311-.375.862-.502 1.332-.344l.638.2c.186.058.39.111.605.158.213.047.451.082.715.108.505.05 1.238.089 1.867-.072.278-.071.523-.174.729-.308.189-.121.334-.266.448-.444a.958.958 0 0 0 .139-.528.993.993 0 0 0-.068-.387.993.993 0 0 0-.202-.311 1.768 1.768 0 0 0-.371-.294 4.78 4.78 0 0 0-.559-.282 13.516 13.516 0 0 0-1.147-.409c-.425-.13-.84-.265-1.245-.4-.425-.143-.83-.304-1.212-.484a4.519 4.519 0 0 1-1.12-.736 3.514 3.514 0 0 1-.818-1.109 3.721 3.721 0 0 1-.325-1.556c0-.59.089-1.133.341-1.612.242-.462.494-.865.905-1.196.393-.318.698-.573 1.215-.76.31-.111.649-.196.649-.256v-.454c0-.362.41-.677.664-.889.423-.354 1.324-.365 1.76-.009.258.207.308.526.308.898v.421c0 .027.657.065.946.114.533.087 1.126.22 1.577.397.276.085.52.263.683.514.15.225.228.477.228.745 0 .308-.107.597-.309.836-.32.373-.87.5-1.334.338-.15-.031-.378-.081-.617-.133a15.282 15.282 0 0 0-.704-.13 9.83 9.83 0 0 0-.693-.09c-.514-.049-.947-.045-1.422.06-.261.058-.5.145-.71.259a1.27 1.27 0 0 0-.427.368.658.658 0 0 0-.119.408c0 .259.054.46.167.612.148.201.34.369.589.515.286.165.624.313 1.004.44l1.289.419c.452.144.898.304 1.337.478.485.194.92.437 1.294.724.4.305.73.686.979 1.13.26.464.381 1.029.381 1.675 0 .622-.146 1.194-.413 1.699a4.034 4.034 0 0 1-1.069 1.258z"/></svg>