<svg xmlns="http://www.w3.org/2000/svg" width="120" height="120"><path fill-rule="evenodd" fill="#0095DA" d="M60.002 120.003C26.864 120.003 0 93.139 0 60.002 0 26.864 26.864 0 60.002 0c33.137 0 60.001 26.864 60.001 60.002 0 33.137-26.864 60.001-60.001 60.001zM60.001 3C28.52 3 3 28.521 3 60.002s25.52 57.001 57.001 57.001c31.481 0 57.002-25.52 57.002-57.001C117.003 28.521 91.482 3 60.001 3zm23.007 75.006c-6.632 0-11.838-4.936-11.987-11.286-.003-.029-.003-.056-.004-.085-.001-.065-.01-.127-.01-.192 0-.262.087-.495.207-.707l8.45-24.729H64.998v43.995h15.7c1.275 0 2.312 1.152 2.312 2.568v2.86c0 1.416-1.037 2.568-2.312 2.568H41.319c-1.274 0-2.312-1.152-2.312-2.568v-2.86c0-1.416 1.038-2.568 2.312-2.568h15.669V41.007H42.305l8.428 24.631c.159.234.273.5.273.805 0 6.484-5.272 11.563-12.002 11.563-6.589 0-11.768-4.874-11.981-11.164-.053-.272-.053-.556.066-.829v-.001c.031-.098.07-.186.119-.273L38.91 38.85a1.442 1.442 0 0 1 1.384-.863c.023.001.044.011.067.013.025-.002.046-.015.071-.015h16.556v-6.979a4.013 4.013 0 0 1 4.005-4.013c2.209 0 4.005 1.8 4.005 4.013v6.979h16.527c.027 0 .05.014.077.016.024-.003.046-.013.071-.014.63-.029 1.146.32 1.382.863l11.567 26.614c.236.26.388.599.388.979 0 6.484-5.272 11.563-12.002 11.563zM42.004 89.985h38.009v-1.97H42.004v1.97zm-3-14.893c4.67 0 8.309-3.004 8.997-7.192H30.008c.688 4.188 4.326 7.192 8.996 7.192zm1.071-31.694L30.68 64.986h16.781l-7.386-21.588zm21.924-12.242c0-.639-.451-1.158-1.005-1.158-.554 0-1.005.519-1.005 1.158v53.831h2.01V31.156zm19.892 12.242l-7.376 21.588h16.76l-9.384-21.588zM74.012 67.9c.689 4.188 4.327 7.192 8.996 7.192 4.67 0 8.308-3.004 8.997-7.192H74.012z"/></svg>