<svg width="30" height="30" viewBox="0 0 30 30" fill="none" xmlns="http://www.w3.org/2000/svg">
<mask id="mask0" mask-type="alpha" maskUnits="userSpaceOnUse" x="4" y="9" width="22" height="12">
<path fill-rule="evenodd" clip-rule="evenodd" d="M22 2C22 3.1 21.1 4 20 4C19.82 4 19.65 3.98 19.49 3.93L15.93 7.48C15.98 7.64 16 7.82 16 8C16 9.1 15.1 10 14 10C12.9 10 12 9.1 12 8C12 7.82 12.02 7.64 12.07 7.48L9.52 4.93C9.36 4.98 9.18 5 9 5C8.82 5 8.64 4.98 8.48 4.93L3.93 9.49C3.98 9.65 4 9.82 4 10C4 11.1 3.1 12 2 12C0.9 12 0 11.1 0 10C0 8.9 0.9 8 2 8C2.18 8 2.35 8.02 2.51 8.07L7.07 3.52C7.02 3.36 7 3.18 7 3C7 1.9 7.9 1 9 1C10.1 1 11 1.9 11 3C11 3.18 10.98 3.36 10.93 3.52L13.48 6.07C13.64 6.02 13.82 6 14 6C14.18 6 14.36 6.02 14.52 6.07L18.07 2.51C18.02 2.35 18 2.18 18 2C18 0.9 18.9 0 20 0C21.1 0 22 0.9 22 2Z" transform="translate(4 9)" fill="white"/>
</mask>
<g mask="url(#mask0)">
<path fill-rule="evenodd" clip-rule="evenodd" d="M0 0H30V30H0V0Z" fill="url(#paint0_linear)"/>
<path fill-rule="evenodd" clip-rule="evenodd" d="M0 0H26V26H0V0Z" transform="translate(2 2)" fill="#D8D8D8"/>
</g>
<defs>
<linearGradient id="paint0_linear" x2="1" gradientUnits="userSpaceOnUse" gradientTransform="scale(42.4264) rotate(45)">
<stop stop-color="#FAD388"/>
<stop offset="1" stop-color="#F48A82"/>
</linearGradient>
</defs>
</svg>
