<svg width="30" height="30" viewBox="0 0 30 30" fill="none" xmlns="http://www.w3.org/2000/svg">
<mask id="mask0" mask-type="alpha" maskUnits="userSpaceOnUse" x="4" y="8" width="22" height="14">
<path fill-rule="evenodd" clip-rule="evenodd" d="M15 6C16.66 6 17.99 4.66 17.99 3C17.99 1.34 16.66 0 15 0C13.34 0 12 1.34 12 3C12 4.66 13.34 6 15 6ZM7 6C8.66 6 9.99 4.66 9.99 3C9.99 1.34 8.66 0 7 0C5.34 0 4 1.34 4 3C4 4.66 5.34 6 7 6ZM7 8C4.67 8 0 9.17 0 11.5V14H14V11.5C14 9.17 9.33 8 7 8ZM14.9998 8C14.7098 8 14.3798 8.02 14.0298 8.05C15.1898 8.89 15.9998 10.02 15.9998 11.5V14H21.9998V11.5C21.9998 9.17 17.3298 8 14.9998 8Z" transform="translate(4 8)" fill="white"/>
</mask>
<g mask="url(#mask0)">
<path fill-rule="evenodd" clip-rule="evenodd" d="M0 0H30V30H0V0Z" fill="url(#paint0_linear)"/>
<path fill-rule="evenodd" clip-rule="evenodd" d="M0 0H24V24H0V0Z" transform="translate(3 3)" fill="#D8D8D8"/>
</g>
<defs>
<linearGradient id="paint0_linear" x2="1" gradientUnits="userSpaceOnUse" gradientTransform="scale(42.4264) rotate(45)">
<stop stop-color="#FAD388"/>
<stop offset="1" stop-color="#F48A82"/>
</linearGradient>
</defs>
</svg>
