<svg width="30" height="30" viewBox="0 0 30 30" fill="none" xmlns="http://www.w3.org/2000/svg">
<mask id="mask0" mask-type="alpha" maskUnits="userSpaceOnUse" x="5" y="7" width="20" height="19">
<path fill-rule="evenodd" clip-rule="evenodd" d="M10 18.35L8.55 17.03C3.4 12.36 0 9.28 0 5.5C0 2.42 2.42 0 5.5 0C7.24 0 8.91 0.81 10 2.09C11.09 0.81 12.76 0 14.5 0C17.58 0 20 2.42 20 5.5C20 9.28 16.6 12.36 11.45 17.04L10 18.35Z" transform="translate(5 7)" fill="white"/>
</mask>
<g mask="url(#mask0)">
<path fill-rule="evenodd" clip-rule="evenodd" d="M0 0H30V30H0V0Z" fill="url(#paint0_linear)"/>
<path fill-rule="evenodd" clip-rule="evenodd" d="M0 0H24V24H0V0Z" transform="translate(3 3)" fill="#D8D8D8"/>
</g>
<defs>
<linearGradient id="paint0_linear" x2="1" gradientUnits="userSpaceOnUse" gradientTransform="scale(42.4264) rotate(45)">
<stop stop-color="#FAD388"/>
<stop offset="1" stop-color="#F48A82"/>
</linearGradient>
</defs>
</svg>
