<svg width="30" height="30" viewBox="0 0 30 30" fill="none" xmlns="http://www.w3.org/2000/svg">
<g id="Compare">
<mask id="mask0" mask-type="alpha" maskUnits="userSpaceOnUse" x="6" y="8" width="19" height="15">
<path id="Icon" fill-rule="evenodd" clip-rule="evenodd" d="M1.5 6C0.67 6 0 6.67 0 7.5C0 8.33 0.67 9 1.5 9C2.33 9 3 8.33 3 7.5C3 6.67 2.33 6 1.5 6ZM1.5 0C0.67 0 0 0.67 0 1.5C0 2.33 0.67 3 1.5 3C2.33 3 3 2.33 3 1.5C3 0.67 2.33 0 1.5 0ZM1.49992 12.1699C0.759922 12.1699 0.169922 12.7699 0.169922 13.4999C0.169922 14.2299 0.769922 14.8299 1.49992 14.8299C2.22992 14.8299 2.82992 14.2299 2.82992 13.4999C2.82992 12.7699 2.23992 12.1699 1.49992 12.1699ZM4.5 14.5H18.5V12.5H4.5V14.5ZM4.5 8.5H18.5V6.5H4.5V8.5ZM4.5 0.5V2.5H18.5V0.5H4.5Z" transform="translate(6 8)" fill="white"/>
</mask>
<g mask="url(#mask0)">
<g id="&#226;&#134;&#179; Color Icon">
<path id="Gray 80" fill-rule="evenodd" clip-rule="evenodd" d="M0 0H26V26H0V0Z" transform="translate(2 2)" fill="#CCCCCC"/>
</g>
</g>
</g>
</svg>
