<svg width="30" height="30" viewBox="0 0 30 30" fill="none" xmlns="http://www.w3.org/2000/svg">
<g id="3. Icons/ic_search">
<mask id="mask0" mask-type="alpha" maskUnits="userSpaceOnUse" x="6" y="6" width="18" height="18">
<path id="Icon" fill-rule="evenodd" clip-rule="evenodd" d="M12.5 11H11.71L11.43 10.73C12.41 9.59 13 8.11 13 6.5C13 2.91 10.09 0 6.5 0C2.91 0 0 2.91 0 6.5C0 10.09 2.91 13 6.5 13C8.11 13 9.59 12.41 10.73 11.43L11 11.71V12.5L16 17.49L17.49 16L12.5 11ZM6.5 11C4.01 11 2 8.99 2 6.5C2 4.01 4.01 2 6.5 2C8.99 2 11 4.01 11 6.5C11 8.99 8.99 11 6.5 11Z" transform="translate(6 6)" fill="white"/>
</mask>
<g mask="url(#mask0)">
<g id="&#226;&#134;&#179; Color Icon">
<path id="Gray 85" fill-rule="evenodd" clip-rule="evenodd" d="M0 0H24V24H0V0Z" transform="translate(3 3)" fill="#D8D8D8"/>
</g>
</g>
</g>
</svg>
