<svg width="30" height="30" viewBox="0 0 30 30" fill="none" xmlns="http://www.w3.org/2000/svg">
<mask id="mask0" mask-type="alpha" maskUnits="userSpaceOnUse" x="4" y="7" width="22" height="16">
<path fill-rule="evenodd" clip-rule="evenodd" d="M11 0C6 0 1.73 3.11 0 7.5C1.73 11.89 6 15 11 15C16 15 20.27 11.89 22 7.5C20.27 3.11 16 0 11 0ZM11 12.5C8.24 12.5 6 10.26 6 7.5C6 4.74 8.24 2.5 11 2.5C13.76 2.5 16 4.74 16 7.5C16 10.26 13.76 12.5 11 12.5ZM11 4.5C9.34 4.5 8 5.84 8 7.5C8 9.16 9.34 10.5 11 10.5C12.66 10.5 14 9.16 14 7.5C14 5.84 12.66 4.5 11 4.5Z" transform="translate(4 7.5)" fill="white"/>
</mask>
<g mask="url(#mask0)">
<path fill-rule="evenodd" clip-rule="evenodd" d="M0 0H30V30H0V0Z" fill="url(#paint0_linear)"/>
<path fill-rule="evenodd" clip-rule="evenodd" d="M0 0H26V26H0V0Z" transform="translate(2 2)" fill="#D8D8D8"/>
</g>
<defs>
<linearGradient id="paint0_linear" x2="1" gradientUnits="userSpaceOnUse" gradientTransform="scale(42.4264) rotate(45)">
<stop stop-color="#FAD388"/>
<stop offset="1" stop-color="#F48A82"/>
</linearGradient>
</defs>
</svg>
