<svg width="30" height="30" viewBox="0 0 30 30" fill="none" xmlns="http://www.w3.org/2000/svg">
<mask id="mask0" mask-type="alpha" maskUnits="userSpaceOnUse" x="5" y="6" width="20" height="18">
<path fill-rule="evenodd" clip-rule="evenodd" d="M10 4V0H0V18H20V4H10ZM4 16H2V14H4V16ZM4 12H2V10H4V12ZM4 8H2V6H4V8ZM4 4H2V2H4V4ZM8 16H6V14H8V16ZM8 12H6V10H8V12ZM8 8H6V6H8V8ZM8 4H6V2H8V4ZM18 16H10V14H12V12H10V10H12V8H10V6H18V16ZM16 8H14V10H16V8ZM16 12H14V14H16V12Z" transform="translate(5 6)" fill="white"/>
</mask>
<g mask="url(#mask0)">
<path fill-rule="evenodd" clip-rule="evenodd" d="M0 0H30V30H0V0Z" fill="url(#paint0_linear)"/>
<path fill-rule="evenodd" clip-rule="evenodd" d="M0 0H26V26H0V0Z" transform="translate(2 2)" fill="#D8D8D8"/>
</g>
<defs>
<linearGradient id="paint0_linear" x2="1" gradientUnits="userSpaceOnUse" gradientTransform="scale(42.4264) rotate(45)">
<stop stop-color="#FAD388"/>
<stop offset="1" stop-color="#F48A82"/>
</linearGradient>
</defs>
</svg>
